<svg xmlns="http://www.w3.org/2000/svg" version="1.1" xmlns:xlink="http://www.w3.org/1999/xlink" xmlns:svgjs="http://svgjs.dev/svgjs" width="1512" height="982" preserveAspectRatio="none" viewBox="0 0 1512 982"><g mask="url(&quot;#SvgjsMask1077&quot;)" fill="none"><rect width="1512" height="982" x="0" y="0" fill="#0e2a47"></rect><path d="M706.883,1130.592C800.701,1131.37,894.467,1089.686,938.508,1006.844C980.451,927.949,950.689,835.504,904.387,759.086C860.146,686.07,792.226,626.848,706.883,624.568C617.823,622.189,535.75,671.446,490.215,748.022C443.621,826.379,436.895,923.729,481.821,1003.055C527.366,1083.473,614.466,1129.825,706.883,1130.592" fill="rgba(28, 83, 142, 0.4)" class="triangle-float2"></path><path d="M498.38 255.81 a176.1 176.1 0 1 0 352.2 0 a176.1 176.1 0 1 0 -352.2 0z" fill="rgba(28, 83, 142, 0.4)" class="triangle-float1"></path><path d="M362.423,399.466C406.186,398.803,452.226,388.333,474.89,350.89C498.219,312.35,490.281,264.157,468.042,224.978C445.476,185.224,408.082,154.966,362.423,152.757C312.798,150.356,262.662,170.994,237.485,213.825C212.01,257.163,215.83,312.682,243.898,354.388C269.193,391.973,317.124,400.152,362.423,399.466" fill="rgba(28, 83, 142, 0.4)" class="triangle-float3"></path><path d="M955.508,671.289C988.314,670.361,1018.948,654.942,1035.897,626.838C1053.429,597.767,1054.642,562.31,1039.578,531.887C1022.496,497.388,994.004,464.235,955.508,464.485C917.286,464.733,891.224,499.203,873.31,532.968C856.756,564.17,848.791,601.256,866.835,631.62C884.564,661.455,920.817,672.27,955.508,671.289" fill="rgba(28, 83, 142, 0.4)" class="triangle-float3"></path><path d="M76.3836674288072 551.1825140014414L314.70056034587407 610.6015889562458 374.11963530067845 372.2846960391789 135.80274238361156 312.86562108437454z" fill="rgba(28, 83, 142, 0.4)" class="triangle-float2"></path><path d="M1548.585,1025.762C1613.474,1024.74,1683.533,1014.44,1717.602,959.205C1752.998,901.817,1739.043,829.516,1705.813,770.847C1672.022,711.186,1617.144,661.773,1548.585,660.794C1478.571,659.794,1418.842,705.865,1383.378,766.241C1347.392,827.507,1331.935,904.737,1370.091,964.676C1406.286,1021.534,1481.192,1026.823,1548.585,1025.762" fill="rgba(28, 83, 142, 0.4)" class="triangle-float3"></path></g><defs><mask id="SvgjsMask1077"><rect width="1512" height="982" fill="#ffffff"></rect></mask><style>
                @keyframes float1 {
                    0%{transform: translate(0, 0)}
                    50%{transform: translate(-10px, 0)}
                    100%{transform: translate(0, 0)}
                }

                .triangle-float1 {
                    animation: float1 5s infinite;
                }

                @keyframes float2 {
                    0%{transform: translate(0, 0)}
                    50%{transform: translate(-5px, -5px)}
                    100%{transform: translate(0, 0)}
                }

                .triangle-float2 {
                    animation: float2 4s infinite;
                }

                @keyframes float3 {
                    0%{transform: translate(0, 0)}
                    50%{transform: translate(0, -10px)}
                    100%{transform: translate(0, 0)}
                }

                .triangle-float3 {
                    animation: float3 6s infinite;
                }
            </style></defs></svg>